# xmcd CD database file
# Copyright (C) 1996 Ti Kan
#
# Track frame offsets:
# 	180
# 	1279
# 	15769
# 	33151
# 	61835
# 	77969
# 	82438
# 	102343
# 	118416
# 	133692
# 	148757
# 	161362
# 	173320
#
# Disc length: 2540 seconds
#
# Revision: 1
# Processed by: cddbd v1.4b41PL1 Copyright (c) Steve Scherf et al.
# Submitted via: DiscPlay 3.3.1
#
DISCID=9e09ea0d
DTITLE=Darrell Mansfield - The Lord's House - A Tribute to Reverend Dan 
DTITLE=Smith
DYEAR=1900
DGENRE=
TTITLE0=Rev. Dan Speaks
TTITLE1=God's Radar
TTITLE2=Twelve Gates to the City
TTITLE3=This is the Lord's House
TTITLE4=Stand By Me
TTITLE5=Rev. Dan Speaks
TTITLE6=I've Never Been to Seminary
TTITLE7=It Takes God to Build a Home
TTITLE8=This is the Lord's House
TTITLE9=Great Change Since I've Been Born
TTITLE10=At the Table with the Lord
TTITLE11=Down Through the Years
TTITLE12=Everyday Will be Sunday on the Other Side
EXTD=
EXTT0=
EXTT1=
EXTT2=
EXTT3=
EXTT4=
EXTT5=
EXTT6=
EXTT7=
EXTT8=
EXTT9=
EXTT10=
EXTT11=
EXTT12=
PLAYORDER=
